<?xml version="1.0" encoding="UTF-8" standalone="no"?>
<!DOCTYPE svg PUBLIC "-//W3C//DTD SVG 1.1//EN" "http://www.w3.org/Graphics/SVG/1.1/DTD/svg11.dtd">
<svg width="100%" height="100%" viewBox="0 0 67 67" version="1.1" xmlns="http://www.w3.org/2000/svg" xmlns:xlink="http://www.w3.org/1999/xlink" xml:space="preserve" xmlns:serif="http://www.serif.com/" style="fill-rule:evenodd;clip-rule:evenodd;stroke-linejoin:round;stroke-miterlimit:2;">
    <g transform="matrix(4.16667,0,0,4.16667,0,0)">
        <path d="M10,14L6,14L6,15L10,15L10,14ZM12,12L4,12L4,13L12,13L12,12ZM11,10L5,10L5,11L11,11L11,10ZM13,8L3,8L3,9L13,9L13,8ZM15,2C15,1.448 14.552,1 14,1L2,1C1.448,1 1,1.448 1,2L1,6C1,6.552 1.448,7 2,7L14,7C14.552,7 15,6.552 15,6L15,2Z" style="fill:white;"/>
    </g>
</svg>
